# xmcd CD database file
#
# Track frame offsets:
#	187
#	18312
#	31300
#	47767
#	64660
#	87787
#	109242
#	130837
#	154847
#	169287
#	188737
#	211135
#	224915
#	246197
#
# Disc length: 3579 seconds
#
# Revision: 0
# Processed by: cddbd v1.4PL0 Copyright (c) Steve Scherf et al.
# Submitted via: CDex 1.40Beta9
#
DISCID=c50df90e
DTITLE=J-Blues - Royal Straight Soul
DYEAR=1991
DGENRE=Blues
TTITLE0=What's Going On
TTITLE1=Hold On I'm Coming
TTITLE2=Respect
TTITLE3=A Natural Woman
TTITLE4=Me and Mrs Jones
TTITLE5=Isn't She Lovely
TTITLE6=When A Man Loves A Woman
TTITLE7=If You Don't Know Me By Now
TTITLE8=Stop! In The Name Of Love
TTITLE9=Stand By Me 
TTITLE10=Rainy Night In Georgia
TTITLE11=Dancing In The Street
TTITLE12=You're The Sunshine Of My Life
TTITLE13=Soul To Soul
EXTD=YEAR: 1991 ID3G: 0
EXTT0=
EXTT1=
EXTT2=
EXTT3=
EXTT4=
EXTT5=
EXTT6=
EXTT7=
EXTT8=
EXTT9=
EXTT10=
EXTT11=
EXTT12=
EXTT13=
PLAYORDER=
